<svg width="21" height="15" viewBox="0 0 21 15" fill="none" xmlns="http://www.w3.org/2000/svg">
<path d="M17.1708 1.47799C15.9436 0.924551 14.6282 0.515488 13.2526 0.282884C13.2404 0.280532 13.2277 0.282048 13.2164 0.287221C13.205 0.292394 13.1955 0.300969 13.1893 0.311759C13.0208 0.607728 12.8332 0.99353 12.7016 1.29832C11.2427 1.08034 9.7595 1.08034 8.30058 1.29832C8.15407 0.960532 7.98885 0.631168 7.8057 0.311759C7.79949 0.300837 7.7901 0.292068 7.77878 0.286622C7.76746 0.281176 7.75474 0.279312 7.74233 0.28128C6.36756 0.513884 5.05215 0.922946 3.82416 1.47719C3.81359 1.48162 3.80464 1.48917 3.79849 1.49884C1.30241 5.16837 0.618231 8.74727 0.954303 12.2812C0.955239 12.2899 0.957925 12.2983 0.9622 12.3059C0.966475 12.3134 0.972248 12.3201 0.979168 12.3254C2.43607 13.3861 4.06104 14.1941 5.78605 14.7156C5.79808 14.7193 5.81094 14.7193 5.82296 14.7155C5.83498 14.7118 5.8456 14.7046 5.85343 14.6947C6.22399 14.1974 6.55445 13.6721 6.83678 13.1202C6.85363 13.0881 6.83758 13.0496 6.8039 13.0368C6.28575 12.8417 5.78372 12.6062 5.3024 12.3326C5.29375 12.3276 5.28646 12.3206 5.28119 12.3122C5.27591 12.3037 5.27282 12.2941 5.27219 12.2842C5.27155 12.2742 5.27339 12.2643 5.27754 12.2552C5.2817 12.2462 5.28803 12.2383 5.29598 12.2323C5.39704 12.1577 5.49811 12.0799 5.59436 12.0021C5.60302 11.9951 5.61346 11.9907 5.6245 11.9893C5.63555 11.9878 5.64677 11.9895 5.65692 11.9941C8.8067 13.409 12.218 13.409 15.3308 11.9941C15.341 11.9892 15.3524 11.9873 15.3636 11.9886C15.3748 11.9899 15.3854 11.9943 15.3942 12.0013C15.4905 12.0799 15.5907 12.1577 15.6926 12.2323C15.7006 12.2382 15.7071 12.246 15.7113 12.2549C15.7156 12.2639 15.7176 12.2738 15.7171 12.2837C15.7167 12.2937 15.7137 12.3033 15.7086 12.3119C15.7035 12.3204 15.6963 12.3275 15.6878 12.3326C15.2081 12.6085 14.7092 12.8419 14.1855 13.036C14.1774 13.0389 14.1701 13.0435 14.164 13.0495C14.1579 13.0555 14.1531 13.0627 14.15 13.0707C14.1468 13.0786 14.1455 13.0872 14.1459 13.0957C14.1464 13.1043 14.1486 13.1126 14.1526 13.1202C14.4413 13.6713 14.7718 14.1958 15.1351 14.6939C15.1427 14.7041 15.1532 14.7118 15.1653 14.7158C15.1773 14.7198 15.1903 14.72 15.2025 14.7164C16.9305 14.1963 18.5581 13.3879 20.0166 12.3254C20.0237 12.3204 20.0297 12.3139 20.0341 12.3065C20.0386 12.299 20.0413 12.2907 20.0423 12.2821C20.4433 8.19624 19.3701 4.64622 17.1957 1.50045C17.1904 1.49022 17.1815 1.48225 17.1708 1.47799ZM7.30761 10.1293C6.35954 10.1293 5.57751 9.27183 5.57751 8.2203C5.57751 7.16797 6.3443 6.31134 7.30761 6.31134C8.27813 6.31134 9.05294 7.17519 9.0377 8.2203C9.0377 9.27263 8.27091 10.1293 7.30761 10.1293ZM13.7042 10.1293C12.7554 10.1293 11.9741 9.27183 11.9741 8.2203C11.9741 7.16797 12.7401 6.31134 13.7042 6.31134C14.6747 6.31134 15.4496 7.17519 15.4343 8.2203C15.4343 9.27263 14.6755 10.1293 13.7042 10.1293Z" fill="black"/>
</svg>
