<svg width="24" height="28" viewBox="0 0 24 28" fill="none" xmlns="http://www.w3.org/2000/svg">
<path d="M22.4814 12.4278H20.2541V5.09095C20.2541 2.77524 18.3773 0.898438 16.0616 0.898438H7.93862C5.62291 0.898438 3.7461 2.77524 3.7461 5.09095V12.4278H1.51883C0.939085 12.4278 0.470703 12.8962 0.470703 13.476V26.0535C0.470703 26.6333 0.939085 27.1016 1.51883 27.1016H22.4814C23.0611 27.1016 23.5295 26.6333 23.5295 26.0535V13.476C23.5295 12.8962 23.0611 12.4278 22.4814 12.4278ZM12.9172 20.1905V21.9265C12.9172 22.0706 12.7993 22.1885 12.6552 22.1885H11.345C11.2009 22.1885 11.083 22.0706 11.083 21.9265V20.1905C10.8126 19.9964 10.6108 19.7215 10.5066 19.4054C10.4024 19.0893 10.4012 18.7483 10.5032 18.4314C10.6052 18.1146 10.805 17.8383 11.074 17.6423C11.343 17.4463 11.6673 17.3406 12.0001 17.3406C12.333 17.3406 12.6572 17.4463 12.9262 17.6423C13.1952 17.8383 13.3951 18.1146 13.497 18.4314C13.599 18.7483 13.5978 19.0893 13.4936 19.4054C13.3894 19.7215 13.1876 19.9964 12.9172 20.1905ZM17.8958 12.4278H6.10439V5.09095C6.10439 4.07885 6.92652 3.25673 7.93862 3.25673H16.0616C17.0737 3.25673 17.8958 4.07885 17.8958 5.09095V12.4278Z" fill="#FF0000"/>
</svg>
