<svg width="40" height="24" viewBox="0 0 40 24" fill="none" xmlns="http://www.w3.org/2000/svg">
<path d="M28.3455 6.04365L30.6843 8.76365C30.9521 9.06915 31.1895 9.32045 31.2855 9.46335C31.985 10.1514 32.3772 11.0813 32.3766 12.0503C32.3109 13.1935 31.5583 13.972 30.8611 14.8048L29.2244 16.7068L28.3707 17.6923C28.3401 17.7263 28.3204 17.7683 28.3139 17.8131C28.3075 17.858 28.3147 17.9036 28.3346 17.9445C28.3544 17.9854 28.3861 18.0197 28.4258 18.0432C28.4654 18.0666 28.5113 18.0783 28.5576 18.0767H37.0897C38.393 18.0767 40.0347 19.1607 39.9388 20.8065C39.9361 21.5545 39.6303 22.2712 39.088 22.8001C38.5458 23.3291 37.8111 23.6274 37.0442 23.63H23.6829C22.8039 23.63 20.4398 23.7236 19.778 21.728C19.6373 21.3109 19.6181 20.864 19.7225 20.4369C19.9148 19.8055 20.2191 19.2118 20.6217 18.6827C21.2935 17.6973 22.0209 16.7118 22.7383 15.7558C23.6627 14.5042 24.6124 13.292 25.5469 12.0158C25.5801 11.9742 25.5981 11.9231 25.5981 11.8704C25.5981 11.8178 25.5801 11.7666 25.5469 11.7251L22.1523 7.78305C22.1301 7.7545 22.1015 7.7313 22.0686 7.71535C22.0358 7.6994 21.9996 7.6911 21.9628 7.6911C21.9261 7.6911 21.8899 7.6994 21.8571 7.71535C21.8242 7.7313 21.7955 7.7545 21.7734 7.78305C20.8641 8.98045 16.8835 14.2825 16.0349 15.3567C15.1862 16.4309 13.0949 16.49 11.938 15.3567L6.62887 10.1581C6.59498 10.1249 6.55168 10.1023 6.5046 10.0931C6.45747 10.0839 6.40862 10.0886 6.36427 10.1066C6.31987 10.1245 6.28193 10.1549 6.25531 10.1939C6.22869 10.2329 6.21454 10.2788 6.21465 10.3256V20.3236C6.22712 21.0331 6.01178 21.7286 5.59866 22.3127C5.18559 22.8968 4.59552 23.3402 3.91114 23.5807C3.47383 23.7292 3.00651 23.7736 2.54803 23.71C2.0896 23.6465 1.6534 23.477 1.27575 23.2157C0.898094 22.9544 0.58995 22.6087 0.377027 22.2077C0.164155 21.8066 0.0526166 21.3617 0.0517578 20.91V2.93435C0.0822186 2.28655 0.321157 1.6646 0.734676 1.15685C1.1482 0.6491 1.71523 0.2814 2.35526 0.10595C2.90427 -0.0367098 3.48216 -0.0352799 4.03041 0.1101C4.57865 0.25545 5.07774 0.53965 5.47712 0.9338L13.6404 8.90655C13.6649 8.93075 13.6944 8.94945 13.7271 8.96125C13.7597 8.97305 13.7947 8.97775 13.8294 8.9749C13.8641 8.9721 13.8977 8.96185 13.928 8.94495C13.9582 8.928 13.9841 8.9048 14.0041 8.87695L19.8033 1.0471C20.0713 0.72925 20.4073 0.4724 20.7878 0.2945C21.1682 0.1166 21.5839 0.0220004 22.0058 0.0172504H37.0897C37.5025 0.0179504 37.9104 0.10455 38.2861 0.27135C38.6618 0.4382 38.9967 0.68135 39.2683 0.98455C39.54 1.28775 39.7421 1.64405 39.8612 2.0296C39.9803 2.41515 40.0136 2.82105 39.959 3.22015C39.8527 3.9125 39.4926 4.5438 38.9454 4.99685C38.3983 5.4499 37.7012 5.69405 36.9836 5.68395H28.5374C28.495 5.68495 28.4536 5.69705 28.4176 5.71895C28.3815 5.74085 28.3522 5.7718 28.3326 5.8085C28.313 5.84525 28.3038 5.88645 28.3061 5.9278C28.3084 5.96915 28.322 6.00915 28.3455 6.04365Z" fill="white"/>
</svg>
